<?xml version="1.0" encoding="UTF-8" standalone="no"?>
<svg width="60px" height="60px" viewBox="0 0 60 60" version="1.1" xmlns="http://www.w3.org/2000/svg" xmlns:xlink="http://www.w3.org/1999/xlink" xmlns:sketch="http://www.bohemiancoding.com/sketch/ns">
    <g id="Chocolate" stroke="none" stroke-width="1" fill="none" fill-rule="evenodd" sketch:type="MSPage">
        <path d="M18.0859375,21.6777344 C18.0859375,26 29,56 29,56 L40.84375,20.5664062 C40.84375,20.5664062 18.0859373,17.3554688 18.0859375,21.6777344 Z" id="Path-11-copy" stroke="#D5C8A1" fill="#FFFEDB" sketch:type="MSShapeGroup"></path>
        <path d="M41.7110928,8.78417969 C39.6087014,4.76935624 35.1547106,2 30,2 C24.8177608,2 20.3437457,4.79901461 18.2554253,8.84860927 C16.5540425,9.59875711 15.9678149,12.0673817 14.9599609,14.4423828 C13.9138737,16.90748 12.6956831,18.1464062 13.3007812,19.0180416 C14.5068359,20.7553463 14.9941405,23.35547 18.4160157,23.3554688 C21.8378909,23.3554678 20.9619139,26.0000004 22.0810547,26 C23.2001955,26 29.4335944,30.2802731 32.6162109,29.0195312 C35.7988274,27.7587891 36.1464851,26.0000003 38.7314453,26 C41.3164055,26 44.6835926,23.4223881 44.6835937,22.3173828 C44.6835949,21.2123775 45.2050809,18.4501953 45.2050781,16.8974609 C45.2050755,15.3447266 45.4550808,11.3798828 45.4550781,11.3798828 C45.4550755,11.3798828 43.4003914,8.78417969 42.1191406,8.78417969 L41.7110928,8.78417969 Z" id="Oval-26-copy" fill="#976105" sketch:type="MSShapeGroup" transform="translate(29.297301, 15.625951) scale(-1, 1) translate(-29.297301, -15.625951) "></path>
    </g>
</svg>