<?xml version="1.0" encoding="UTF-8" standalone="no"?>
<svg width="60px" height="59px" viewBox="0 0 60 59" version="1.1" xmlns="http://www.w3.org/2000/svg" xmlns:xlink="http://www.w3.org/1999/xlink" xmlns:sketch="http://www.bohemiancoding.com/sketch/ns">
    <g id="Crunchy" stroke="none" stroke-width="1" fill="none" fill-rule="evenodd" sketch:type="MSPage">
        <path d="M10.1517437,19.811531 C8.30208971,19.0468471 7,17.2244814 7,15.0980392 C7,12.288199 9.28194504,10 12.0968669,10 L48.9031331,10 C51.7172088,10 54,12.2824699 54,15.0980392 C54,16.9209557 53.0395484,18.5243177 51.5962156,19.425752 C51.6317408,19.7322065 51.65,20.0439393 51.65,20.3599478 L51.65,41.9929934 C51.65,46.4243156 48.0661151,50 43.6451691,50 L18.1381643,50 C13.7089538,50 10.1333333,46.415141 10.1333333,41.9929934 L10.1333333,20.3599478 C10.1333333,20.1755961 10.1395361,19.9927252 10.1517437,19.811531 Z" id="Rectangle-1" stroke="#D5C8A1" fill="#F3EDD6" sketch:type="MSShapeGroup"></path>
        <path d="M16.1123047,14.4902343 L18.2851563,31.2343747 L6.10565665,41.0041634 L21.2916158,46.1941912 L33.7854606,50.4641488 L38.5517588,37.2216803 C38.5517588,37.2216803 47.8943433,33.8751084 47.8943434,33.5 C47.8943434,33.1092484 47.8943415,16.5358512 47.8943415,16.5358512 L32.3095694,21.6455077 L16.1123047,14.4902343 Z" id="Path-1" fill="#BA8624" sketch:type="MSShapeGroup"></path>
    </g>
</svg>