<?xml version="1.0" encoding="UTF-8" standalone="no"?>
<svg width="59px" height="59px" viewBox="0 0 59 59" version="1.1" xmlns="http://www.w3.org/2000/svg" xmlns:xlink="http://www.w3.org/1999/xlink" xmlns:sketch="http://www.bohemiancoding.com/sketch/ns">
    <g id="Pulp" stroke="none" stroke-width="1" fill="none" fill-rule="evenodd" sketch:type="MSPage">
        <path d="M11.9326172,6.33203125 L46.8662109,6.08203125 L40.1386719,56.4726562 L18.8505859,56.4726562 L11.9326172,6.33203125 Z" id="Path-5" stroke="#C3CCCC" fill="#E6F7F7" sketch:type="MSShapeGroup"></path>
        <path d="M14.1386719,17.7568359 L44.731934,17.7568359 L39.7851567,56 L19.1674294,56 L14.1386719,17.7568359 Z" id="Path-6-copy-2" fill="#F6B638" sketch:type="MSShapeGroup"></path>
        <circle id="Oval-5" stroke="#F0931B" fill="#FDCF57" sketch:type="MSShapeGroup" cx="20" cy="20" r="3"></circle>
        <circle id="Oval-5-copy" stroke="#F0931B" fill="#FDCF57" sketch:type="MSShapeGroup" cx="23" cy="23" r="3"></circle>
        <circle id="Oval-5-copy-2" stroke="#F0931B" fill="#FDCF57" sketch:type="MSShapeGroup" cx="29" cy="17" r="3"></circle>
        <circle id="Oval-5" stroke="#F0931B" fill="#FDCF57" sketch:type="MSShapeGroup" cx="30" cy="22" r="3"></circle>
        <circle id="Oval-5-copy" stroke="#F0931B" fill="#FDCF57" sketch:type="MSShapeGroup" cx="33" cy="25" r="3"></circle>
        <circle id="Oval-5-copy-2" stroke="#F0931B" fill="#FDCF57" sketch:type="MSShapeGroup" cx="39" cy="19" r="3"></circle>
        <circle id="Oval-5" stroke="#F0931B" fill="#FDCF57" sketch:type="MSShapeGroup" cx="21" cy="30" r="3"></circle>
        <circle id="Oval-5-copy" stroke="#F0931B" fill="#FDCF57" sketch:type="MSShapeGroup" cx="24" cy="33" r="3"></circle>
        <circle id="Oval-5-copy-2" stroke="#F0931B" fill="#FDCF57" sketch:type="MSShapeGroup" cx="30" cy="27" r="3"></circle>
        <circle id="Oval-5" stroke="#F0931B" fill="#FDCF57" sketch:type="MSShapeGroup" cx="30" cy="31" r="3"></circle>
        <circle id="Oval-5-copy" stroke="#F0931B" fill="#FDCF57" sketch:type="MSShapeGroup" cx="33" cy="34" r="3"></circle>
        <circle id="Oval-5-copy-2" stroke="#F0931B" fill="#FDCF57" sketch:type="MSShapeGroup" cx="39" cy="28" r="3"></circle>
        <circle id="Oval-5" stroke="#F0931B" fill="#FDCF57" sketch:type="MSShapeGroup" cx="30" cy="40" r="3"></circle>
        <circle id="Oval-5-copy" stroke="#F0931B" fill="#FDCF57" sketch:type="MSShapeGroup" cx="33" cy="43" r="3"></circle>
        <circle id="Oval-5-copy-2" stroke="#F0931B" fill="#FDCF57" sketch:type="MSShapeGroup" cx="39" cy="37" r="3"></circle>
        <circle id="Oval-5" stroke="#F0931B" fill="#FDCF57" sketch:type="MSShapeGroup" cx="22" cy="40" r="3"></circle>
        <circle id="Oval-5-copy" stroke="#F0931B" fill="#FDCF57" sketch:type="MSShapeGroup" cx="25" cy="43" r="3"></circle>
        <circle id="Oval-5-copy-2" stroke="#F0931B" fill="#FDCF57" sketch:type="MSShapeGroup" cx="31" cy="37" r="3"></circle>
        <circle id="Oval-5" stroke="#F0931B" fill="#FDCF57" sketch:type="MSShapeGroup" cx="27" cy="49" r="3"></circle>
        <circle id="Oval-5-copy" stroke="#F0931B" fill="#FDCF57" sketch:type="MSShapeGroup" cx="30" cy="52" r="3"></circle>
        <circle id="Oval-5-copy-2" stroke="#F0931B" fill="#FDCF57" sketch:type="MSShapeGroup" cx="36" cy="46" r="3"></circle>
    </g>
</svg>