<?xml version="1.0" encoding="UTF-8" standalone="no"?>
<svg width="60px" height="59px" viewBox="0 0 60 59" version="1.1" xmlns="http://www.w3.org/2000/svg" xmlns:xlink="http://www.w3.org/1999/xlink" xmlns:sketch="http://www.bohemiancoding.com/sketch/ns">
    <g id="Smooth" stroke="none" stroke-width="1" fill="none" fill-rule="evenodd" sketch:type="MSPage">
        <path d="M10.1517437,18.811531 C8.30208971,18.0468471 7,16.2244814 7,14.0980392 C7,11.288199 9.28194504,9 12.0968669,9 L48.9031331,9 C51.7172088,9 54,11.2824699 54,14.0980392 C54,15.9209557 53.0395484,17.5243177 51.5962156,18.425752 C51.6317408,18.7322065 51.65,19.0439393 51.65,19.3599478 L51.65,40.9929934 C51.65,45.4243156 48.0661151,49 43.6451691,49 L18.1381643,49 C13.7089538,49 10.1333333,45.415141 10.1333333,40.9929934 L10.1333333,19.3599478 C10.1333333,19.1755961 10.1395361,18.9927252 10.1517437,18.811531 Z" id="Rectangle-1-copy" stroke="#D5C8A1" fill="#F3EDD6" sketch:type="MSShapeGroup"></path>
        <path d="M28.8163666,15.7537234 C17.3294107,19.7854942 11.4597263,27.3924302 14.9467527,36.9804023 C18.4337794,46.5683742 29.4417436,47.1820755 38.3767624,46.1496676 C47.3117812,45.1172597 48.0535529,40.5283336 48.0535529,35.8333991 C48.0535526,31.1384645 43.7660294,27.3012885 38.3767624,22.7670273 C32.9874958,18.2327655 40.3033227,11.7219534 28.8163666,15.7537234 Z" id="Path-1" fill="#BA8624" sketch:type="MSShapeGroup"></path>
    </g>
</svg>