<?xml version="1.0" encoding="UTF-8" standalone="no"?>
<svg width="65px" height="59px" viewBox="0 0 65 59" version="1.1" xmlns="http://www.w3.org/2000/svg" xmlns:xlink="http://www.w3.org/1999/xlink" xmlns:sketch="http://www.bohemiancoding.com/sketch/ns">
    
    <g id="Over" stroke="none" stroke-width="1" fill="none" fill-rule="evenodd" sketch:type="MSPage">
        <rect id="Rectangle-11" stroke="#979797" fill="#FFFFFF" sketch:type="MSShapeGroup" transform="translate(34.000000, 28.000000) rotate(15.000000) translate(-34.000000, -28.000000) " x="5" y="11" width="58" height="34" rx="31"></rect>
        <ellipse id="Oval-1" stroke="#979797" fill="#FFFFFF" sketch:type="MSShapeGroup" transform="translate(49.000000, 32.000000) rotate(15.000000) translate(-49.000000, -32.000000) " cx="49" cy="32" rx="14" ry="16"></ellipse>
        <path d="M2.70155257,22.9281856 C1.74060036,26.610428 4.37141909,31.2917654 6.06253669,37.7674705 C7.16072834,41.9727163 4.37141914,46.8751117 4.37141914,46.8751117 L30.7771359,52.6067554 C30.7771359,52.6067554 35.3894423,48.179679 35.3894425,43.7589828 C35.3894425,37.7674705 32.6283218,27.4110466 32.6283218,26.3703801" id="Path-7" stroke="#979797" fill="#FFFFFF" sketch:type="MSShapeGroup" transform="translate(18.942831, 37.767471) rotate(15.000000) translate(-18.942831, -37.767471) "></path>
        <ellipse id="Oval-2-copy" fill="#515357" sketch:type="MSShapeGroup" transform="translate(50.000000, 31.500000) rotate(15.000000) translate(-50.000000, -31.500000) " cx="50" cy="31.5" rx="5" ry="5.5"></ellipse>
    </g>
</svg>