<?xml version="1.0" encoding="UTF-8" standalone="no"?>
<svg width="61px" height="59px" viewBox="0 0 61 59" version="1.1" xmlns="http://www.w3.org/2000/svg" xmlns:xlink="http://www.w3.org/1999/xlink" xmlns:sketch="http://www.bohemiancoding.com/sketch/ns">
    <title>Slice 3</title>
    <description>Created with Sketch (http://www.bohemiancoding.com/sketch)</description>
    <defs></defs>
    <g id="Page-1" stroke="none" stroke-width="1" fill="none" fill-rule="evenodd" sketch:type="MSPage">
        <path d="M25.1377902,23 C22.582126,32.7929687 26.0840793,40.1972656 22.3790012,43.8486328 C18.6739235,47.5000002 13.8340793,49.2675781 13.8340793,49.2675781 L47.3243137,53 C47.3243137,53 51.5850559,49.2705078 52.6065402,44.9433594 C53.6280243,40.6162109 54.0665012,29.4482423 54.0665012,23.0000001" id="Path-7-copy" stroke="#979797" fill="#FFFFFF" sketch:type="MSShapeGroup" transform="translate(33.950290, 38.000000) rotate(15.000000) translate(-33.950290, -38.000000) "></path>
        <rect id="Rectangle-11-copy" stroke="#979797" fill="#FFFFFF" sketch:type="MSShapeGroup" transform="translate(30.000000, 22.500000) rotate(15.000000) translate(-30.000000, -22.500000) " x="1" y="6" width="58" height="33" rx="31"></rect>
        <ellipse id="Oval-1-copy" stroke="#979797" fill="#FFFFFF" sketch:type="MSShapeGroup" transform="translate(44.000000, 26.500000) rotate(15.000000) translate(-44.000000, -26.500000) " cx="44" cy="26.5" rx="14" ry="15.5"></ellipse>
        <ellipse id="Oval-2-copy" fill="#515357" sketch:type="MSShapeGroup" transform="translate(45.000000, 26.500000) rotate(15.000000) translate(-45.000000, -26.500000) " cx="45" cy="26.5" rx="5" ry="5.5"></ellipse>
    </g>
</svg>