<?xml version="1.0" encoding="UTF-8" standalone="no"?>
<svg width="60px" height="59px" viewBox="0 0 60 59" version="1.1" xmlns="http://www.w3.org/2000/svg" xmlns:xlink="http://www.w3.org/1999/xlink" xmlns:sketch="http://www.bohemiancoding.com/sketch/ns">
    <g id="Bottom" stroke="none" stroke-width="1" fill="none" fill-rule="evenodd" sketch:type="MSPage">
        <g id="Rectangle-5-+-Path-3-copy" sketch:type="MSLayerGroup" transform="translate(28.635611, 23.638618) rotate(45.000000) translate(-28.635611, -23.638618) translate(4.635611, 14.138618)" fill="#50DAE2">
            <path d="M45.2330897,5.78173783 L41.8780407,1.19760282 L41.8780407,1 C41.8780407,1 37.6027291,0.0956495938 31.9326002,1 C23.9377178,2.27513453 13.3214873,5.48888826 9.32628649,5.48888826 C2.4976102,5.48888826 1.00000013,1 1.00000013,1 L1.00000013,9.60712809 C0.999999842,12.3460305 1.00000013,18.2142562 1.00000013,18.2142562 C1.00000013,18.2142562 3.80687577,13.7722789 9.32628632,13.7722789 C12.6806689,13.7722789 23.5835451,17.3232103 31.9326002,18.2142564 C37.3213529,18.7893668 41.8780407,18.2142562 41.8780407,18.2142562 L41.8780407,18.0654546 L41.8780407,18.0654546 L45.8086216,11.5198232 L47.3808539,11.5198232 L47.3808539,5.78173783 L45.2330897,5.78173783 Z" id="Rectangle-5" sketch:type="MSShapeGroup"></path>
        </g>
        <g id="Path-3-copy-+-Path-15-copy" sketch:type="MSLayerGroup" transform="translate(53.000000, 42.000000) rotate(-330.000000) translate(-53.000000, -42.000000) translate(46.000000, 35.000000)" stroke="#4FDAE2">
            <path d="M1.32735676,7.62757554 C0.797009701,6.55910601 1.12750415,5.13609773 1.67905858,4.4371584 C2.23061305,3.73821907 2.41341886,3.5204488 3.73085598,3.5204488 C6.30258673,3.52044879 6.45355216,6.18590114 8.04179421,6.1859013 C9.63003627,6.18590154 11.1340443,3.5204488 11.1340444,3.52044879 C11.1340445,3.52044878 12.0848189,4.37244875 12.4835955,5.45107812 C12.6543259,5.9128775 12.7238751,6.41621803 12.5743099,6.91202239 C12.0754041,8.56588188 10.3114089,10.8280517 7.49128749,10.828052 C4.67116607,10.8280523 2.00907765,9.00101199 1.32735676,7.62757554 Z" id="Path-3-copy" fill="#BBF4FA" sketch:type="MSShapeGroup" transform="translate(6.857871, 7.174250) rotate(316.000000) translate(-6.857871, -7.174250) "></path>
            <path d="M2.13452148,10.5136719 C2.34977527,9.49612396 1.95170735,8.47310218 3.62817383,7.85998535 C4.5177002,7.53466797 5.82282299,8.34742614 7.60913086,7.85998535 C8.38272331,7.64889043 9.51647949,5.95874023 9.51647949,4.54821777 C9.51647946,3.88952637 9.1431885,2.14709471 8.01062012,1.52624512" id="Path-15-copy" sketch:type="MSShapeGroup"></path>
        </g>
        <path d="M46.4545898,51.8818359 C46.4545898,50.9506836 46.3017578,46.5908203 46.3017578,46.5908203 L47.5019531,46.8925781 L49.0214844,46.6425781 L50.5405273,47.0454102 L51.902832,46.6425781 L53.1396484,46.9853516 L54.9370117,46.4853516 L55.8398438,47.0454102 L57.2539062,46.328125 L57.1333008,51.4658203 C57.1333008,51.4658203 46.4545898,52.8129883 46.4545898,51.8818359 Z" id="Path-19" stroke="#979797" sketch:type="MSShapeGroup"></path>
        <path d="M45.4287109,50.5561523 C37.0300607,50.5561524 24.0542152,49.3424488 14.3803711,49.1850586 C7.41562465,49.0717445 2.98411921,49.8527145 2.98411921,49.8527145 C2.44060518,49.934058 2,50.4426603 2,50.9989566 L2,53 L56.0069304,53 C57.1076723,53 58,52.1038782 58,51.0043917 L58,50.5561523 L45.4287109,50.5561523 Z" id="Rectangle-13" fill="#E22D2D" sketch:type="MSShapeGroup"></path>
    </g>
</svg>