<?xml version="1.0" encoding="UTF-8" standalone="no"?>
<svg width="61px" height="59px" viewBox="0 0 61 59" version="1.1" xmlns="http://www.w3.org/2000/svg" xmlns:xlink="http://www.w3.org/1999/xlink" xmlns:sketch="http://www.bohemiancoding.com/sketch/ns">
    
    <g id="top" stroke="none" stroke-width="1" fill="none" fill-rule="evenodd" sketch:type="MSPage">
        <g id="Rectangle-5">
            
            <path fill="none" sketch:type="MSShapeGroup" transform="translate(27.148781, 24.992171) rotate(45.000000) translate(-27.148781, -24.992171) " d="M47.7481775,21.1539709 L43.6666014,16.5698358 L43.6666014,16.372233 C43.6666014,16.372233 42.2209274,20.3680674 35.584019,20.3680674 C32.0955022,20.3680674 23.988418,17.4196278 16.6475718,16.372233 C10.0224476,15.4269574 3.936528,18.574664 3.936528,18.574664 L3.936528,24.9793611 L3.936528,31.0074073 C3.936528,31.0074073 10.0372634,34.6776391 16.6475718,33.5864893 C24.269607,32.328336 32.7111454,28.864019 35.584019,28.864019 C40.5096322,28.864019 43.2042145,32.845511 43.6120798,33.4968659 L43.6120798,33.4968659 L43.6120798,33.5123212 L43.6172849,33.5051961 C43.6501513,33.5579093 43.6666014,33.5864892 43.6666014,33.5864892 L43.6666014,33.4376877 L48.4483392,26.8920562 L50.3610344,26.8920562 L50.3610344,21.1539709 L47.7481775,21.1539709 Z"></path>

            <path fill="none" d="M47.7481775,21.1539709 L43.6666014,16.5698358 L43.6666014,16.372233 C43.6666014,16.372233 42.2209274,20.3680674 35.584019,20.3680674 C32.0955022,20.3680674 23.988418,17.4196278 16.6475718,16.372233 C10.0224476,15.4269574 3.936528,18.574664 3.936528,18.574664 L3.936528,24.9793611 L3.936528,31.0074073 C3.936528,31.0074073 10.0372634,34.6776391 16.6475718,33.5864893 C24.269607,32.328336 32.7111454,28.864019 35.584019,28.864019 C40.5096322,28.864019 43.2042145,32.845511 43.6120798,33.4968659 L43.6120798,33.4968659 L43.6120798,33.5123212 L43.6172849,33.5051961 C43.6501513,33.5579093 43.6666014,33.5864892 43.6666014,33.5864892 L43.6666014,33.4376877 L48.4483392,26.8920562 L50.3610344,26.8920562 L50.3610344,21.1539709 L47.7481775,21.1539709 Z"></path>

            <path fill="#50DAE2" fill-rule="evenodd" d="M47.7481775,21.1539709 L43.6666014,16.5698358 L43.6666014,16.372233 C43.6666014,16.372233 42.2209274,20.3680674 35.584019,20.3680674 C32.0955022,20.3680674 23.988418,17.4196278 16.6475718,16.372233 C10.0224476,15.4269574 3.936528,18.574664 3.936528,18.574664 L3.936528,24.9793611 L3.936528,31.0074073 C3.936528,31.0074073 10.0372634,34.6776391 16.6475718,33.5864893 C24.269607,32.328336 32.7111454,28.864019 35.584019,28.864019 C40.5096322,28.864019 43.2042145,32.845511 43.6120798,33.4968659 L43.6120798,33.4968659 L43.6120798,33.5123212 L43.6172849,33.5051961 C43.6501513,33.5579093 43.6666014,33.5864892 43.6666014,33.5864892 L43.6666014,33.4376877 L48.4483392,26.8920562 L50.3610344,26.8920562 L50.3610344,21.1539709 L47.7481775,21.1539709 Z"></path>

        </g>
        <path d="M46.4545898,52.8818359 C46.4545898,51.9506836 46.3017578,47.5908203 46.3017578,47.5908203 L47.5019531,47.8925781 L49.0214844,47.6425781 L50.5405273,48.0454102 L51.902832,47.6425781 L53.1396484,47.9853516 L54.9370117,47.4853516 L55.8398438,48.0454102 L57.2539062,47.328125 L57.1333008,52.4658203 C57.1333008,52.4658203 46.4545898,53.8129883 46.4545898,52.8818359 Z" id="Path-19" stroke="#979797" sketch:type="MSShapeGroup"></path>
        <path d="M45.4287109,51.5561523 C37.0300607,51.5561524 24.0542152,50.3424488 14.3803711,50.1850586 C7.41562465,50.0717445 2.98411921,50.8527145 2.98411921,50.8527145 C2.44060518,50.934058 2,51.4426603 2,51.9989566 L2,54 L56.0069304,54 C57.1076723,54 58,53.1038782 58,52.0043917 L58,51.5561523 L45.4287109,51.5561523 Z" id="Rectangle-13" fill="#E22D2D" sketch:type="MSShapeGroup"></path>
        <g id="Path-3-copy-+-Path-15-copy" sketch:type="MSLayerGroup" transform="translate(52.000000, 43.000000) rotate(-330.000000) translate(-52.000000, -43.000000) translate(45.000000, 36.000000)" stroke="#4FDAE2">
            <path d="M1.32735676,7.62757554 C0.797009701,6.55910601 1.12750415,5.13609773 1.67905858,4.4371584 C2.23061305,3.73821907 2.41341886,3.5204488 3.73085598,3.5204488 C6.30258673,3.52044879 6.45355216,6.18590114 8.04179421,6.1859013 C9.63003627,6.18590154 11.1340443,3.5204488 11.1340444,3.52044879 C11.1340445,3.52044878 12.0848189,4.37244875 12.4835955,5.45107812 C12.6543259,5.9128775 12.7238751,6.41621803 12.5743099,6.91202239 C12.0754041,8.56588188 10.3114089,10.8280517 7.49128749,10.828052 C4.67116607,10.8280523 2.00907765,9.00101199 1.32735676,7.62757554 Z" id="Path-3-copy" fill="#BBF4FA" sketch:type="MSShapeGroup" transform="translate(6.857871, 7.174250) rotate(316.000000) translate(-6.857871, -7.174250) "></path>
            <path d="M2.13452148,10.5136719 C2.34977527,9.49612396 1.95170735,8.47310218 3.62817383,7.85998535 C4.5177002,7.53466797 5.82282299,8.34742614 7.60913086,7.85998535 C8.38272331,7.64889043 9.51647949,5.95874023 9.51647949,4.54821777 C9.51647946,3.88952637 9.1431885,2.14709471 8.01062012,1.52624512" id="Path-15-copy" sketch:type="MSShapeGroup"></path>
        </g>
    </g>
</svg>