<?xml version="1.0" encoding="UTF-8" standalone="no"?>
<svg width="59px" height="59px" viewBox="0 0 59 59" version="1.1" xmlns="http://www.w3.org/2000/svg" xmlns:xlink="http://www.w3.org/1999/xlink" xmlns:sketch="http://www.bohemiancoding.com/sketch/ns">
    <g id="Vanilla" stroke="none" stroke-width="1" fill="none" fill-rule="evenodd" sketch:type="MSPage">
        <path d="M18.0859375,22.6777344 C18.0859375,27 29,57 29,57 L40.84375,21.5664062 C40.84375,21.5664062 18.0859373,18.3554688 18.0859375,22.6777344 Z" id="Path-11" fill="#976105" sketch:type="MSShapeGroup"></path>
        <path d="M40.7110928,9.78417969 C38.6087014,5.76935624 34.1547106,3 29,3 C23.8177608,3 19.3437457,5.79901461 17.2554253,9.84860927 C15.5540425,10.5987571 14.9678149,13.0673817 13.9599609,15.4423828 C12.9138737,17.90748 11.6956831,19.1464062 12.3007812,20.0180416 C13.5068359,21.7553463 13.9941405,24.35547 17.4160157,24.3554688 C20.8378909,24.3554678 19.9619139,27.0000004 21.0810547,27 C22.2001955,27 28.4335944,31.2802731 31.6162109,30.0195312 C34.7988274,28.7587891 35.1464851,27.0000003 37.7314453,27 C40.3164055,27 43.6835926,24.4223881 43.6835937,23.3173828 C43.6835949,22.2123775 44.2050809,19.4501953 44.2050781,17.8974609 C44.2050755,16.3447266 44.4550808,12.3798828 44.4550781,12.3798828 C44.4550755,12.3798828 42.4003914,9.78417969 41.1191406,9.78417969 L40.7110928,9.78417969 Z" id="Oval-26" stroke="#D5C9A1" fill="#FFFEDB" sketch:type="MSShapeGroup"></path>
    </g>
</svg>